<svg width="73" height="72" viewBox="0 0 73 72" fill="none" xmlns="http://www.w3.org/2000/svg">
<path d="M14.1712 2.97341C13.9516 2.96792 13.7323 2.99257 13.5193 3.04667C10.6379 3.78664 8.85577 5.94777 8.4405 8.48169C8.02537 11.0156 8.74537 13.8741 10.2231 16.6651C13.1333 22.1615 19.1193 27.5044 26.796 28.7377C26.0071 27.7927 25.2421 26.7344 24.5075 25.5912C19.022 23.8236 14.6608 19.6366 12.4601 15.4805C11.1655 13.0354 10.6537 10.6302 10.9386 8.89119C11.2236 7.15222 12.0737 6.03116 14.1487 5.49819C14.1579 5.4958 14.1583 5.49341 14.1617 5.49073C14.1525 5.47063 14.1765 5.47948 14.1617 5.49073C14.1677 5.50251 14.1762 5.5129 14.1864 5.52125C14.2605 5.59058 14.424 5.83625 14.4968 6.24406C14.6425 7.06025 14.4387 8.43683 13.3528 9.85531L15.3628 11.394C16.8278 9.48012 17.2823 7.44444 16.9884 5.79927C16.8416 4.97661 16.5108 4.22919 15.9157 3.67245C15.4694 3.25494 14.8263 2.98803 14.1712 2.97341ZM58.4968 2.97341C57.8418 2.98803 57.1988 3.25508 56.7524 3.67259C56.1572 4.22947 55.8265 4.97675 55.6795 5.79941C55.3858 7.44458 55.8403 9.48012 57.3052 11.3942L59.3153 9.85545C58.2293 8.43697 58.0256 7.06039 58.1713 6.2442C58.2441 5.83639 58.4075 5.59072 58.4816 5.52139C58.4919 5.513 58.5003 5.50262 58.5064 5.49088C58.4916 5.47963 58.5155 5.47077 58.5064 5.49088C58.5098 5.49355 58.5102 5.49594 58.5193 5.49833C60.5944 6.0313 61.4445 7.15208 61.7295 8.89119C62.0144 10.6302 61.5025 13.0354 60.2079 15.4805C58.0073 19.6366 53.6461 23.8237 48.1606 25.5912C47.4261 26.7344 46.6608 27.7927 45.8721 28.7377C53.5488 27.5044 59.5348 22.1615 62.445 16.6651C63.9227 13.8741 64.6427 11.0156 64.2276 8.48169C63.8123 5.94763 62.0302 3.78664 59.1488 3.04667C58.9358 2.99257 58.7164 2.96792 58.4968 2.97341ZM19.661 4.05805C19.9628 9.1955 22.0178 15.7398 24.799 21.0489C26.3047 23.9236 28.0159 26.4396 29.6873 28.1765C31.3587 29.9135 32.959 30.7767 34.084 30.7767H38.584C39.709 30.7767 41.3093 29.9135 42.9808 28.1765C44.6521 26.4396 46.3634 23.9236 47.8691 21.0489C50.6502 15.7396 52.7052 9.19564 53.0071 4.05805H19.661ZM24.0997 55.808V69.0268H48.5684V55.808H24.0997ZM27.334 59.0424H45.334V65.7924H27.334V59.0424Z" fill="#FF8A00"/>
<path d="M33.0996 35.5576V33.3076H39.5684V35.5576H33.0996Z" fill="#FF8A00" fill-opacity="0.4"/>
<path d="M30.5695 48.7764C32.2065 46.2273 33.6603 41.7405 34.0059 38.0889H38.662C39.0077 41.7405 40.4616 46.2273 42.0985 48.7764H30.5695Z" fill="#FF8A00" fill-opacity="0.4"/>
<path d="M28.5996 53.2764V51.3076H44.0684V53.2764H28.5996Z" fill="#FF8A00" fill-opacity="0.4"/>
</svg>
