<svg width="57" height="56" viewBox="0 0 57 56" fill="none" xmlns="http://www.w3.org/2000/svg">
<path d="M22.1072 29.8206C21.8412 31.0711 22.383 31.9294 22.1076 32.9862C22.0351 33.2644 21.774 33.6111 21.5174 33.7064C17.6182 35.1586 13.7053 36.5743 9.79453 37.9959C9.74399 38.0144 9.68089 37.9984 9.55469 37.9984C9.57142 37.8339 9.56689 37.676 9.60524 37.5292C11.9431 28.5712 13.5487 19.8336 15.8729 10.872C16.0249 10.2864 16.2857 10.1174 16.8808 10.1192C24.4928 10.1404 32.1048 10.1386 39.7165 10.1254C40.2854 10.1244 40.5741 10.2297 40.7139 10.8738C42.6337 19.7216 43.6707 28.2207 45.6149 37.0633C45.6327 37.1443 45.617 37.233 45.617 37.4378C45.3029 37.3467 45.0129 37.2803 44.7357 37.1791C41.5584 36.0204 38.3881 34.8415 35.2025 33.7064C34.6088 33.495 34.3404 33.1688 34.2445 32.5602C34.0925 31.5945 34.7755 30.9828 34.5374 29.8425C32.8665 31.8494 30.8498 32.9121 28.3303 32.9114C25.8252 32.9111 23.8057 31.905 22.1072 29.8206ZM19.6871 14.498C19.8796 16.7097 20.0096 18.927 20.1951 21.1397C20.2223 21.4628 20.3558 21.8137 20.5426 22.0804C21.2517 23.0927 22.0047 24.0747 22.7375 25.0703C23.1642 25.65 23.5554 26.2583 24.0159 26.8094C24.4189 27.2921 24.9139 24.8446 25.4808 24.4879C27.3804 23.2919 29.2978 23.333 31.188 24.5112C31.6896 24.8238 32.1184 27.2841 32.5218 26.9026C32.7721 26.6662 33.0011 26.4008 33.2036 26.1226C34.186 24.773 35.1646 23.4206 36.1209 22.0533C36.2586 21.8564 36.3098 21.5751 36.3321 21.3265C36.5294 19.1155 36.6713 16.8986 36.9188 14.6935C37.0109 13.8717 36.5702 13.8383 35.9699 13.4812C33.9563 12.2829 25.2141 12.2415 21.4009 13.0406C20.2686 13.2781 19.67 14.2984 19.6871 14.498Z" fill="#FF8A00"/>
<path d="M27.7821 55.9993H10.1588C5.15151 55.9993 1.34058 51.4797 2.2802 46.5614C2.87982 43.4226 4.66229 41.1932 7.63388 40.0435C11.4592 38.5635 15.3303 37.2003 19.1961 35.8274C19.5014 35.7189 19.9982 35.8117 20.2719 36.0026C22.6425 37.6551 24.9862 39.3459 27.3237 41.045C27.5297 41.1949 27.7622 41.4856 27.7636 41.7123C27.7891 46.4421 27.7821 51.1715 27.7821 55.9993Z" fill="#FF8A00"/>
<path d="M54.3785 46.5165C55.357 51.5648 51.5799 55.9965 46.4377 55.9965H29.7385C29.2848 55.9965 28.8849 55.6437 28.8849 55.19C28.8818 50.831 28.8902 46.4719 28.8731 42.1132C28.871 41.6076 28.9916 41.2685 29.4284 40.9611C31.745 39.3312 34.0441 37.6759 36.3317 36.0057C36.7521 35.6986 37.1109 35.651 37.601 35.8329C41.3946 37.2399 45.2151 38.577 48.9938 40.0226C51.9786 41.1646 53.7719 43.3874 54.3785 46.5165Z" fill="#FF8A00"/>
<path d="M38.2978 5.15726H18.1426C20.6669 1.70097 23.9909 0.0324583 28.0955 0.000465222C32.2713 -0.0318756 35.6647 1.62133 38.2978 5.15691V5.15726Z" fill="#FF8A00"/>
<path d="M39.3733 6.4248H17.0295C16.3412 6.4248 15.7832 6.98141 15.7832 7.66801C15.7832 8.35462 16.3412 8.91122 17.0295 8.91122H39.3733C40.0616 8.91122 40.6196 8.35462 40.6196 7.66801C40.6196 6.98141 40.0616 6.4248 39.3733 6.4248Z" fill="#FF8A00"/>
</svg>
