<svg width="73" height="72" viewBox="0 0 73 72" fill="none" xmlns="http://www.w3.org/2000/svg">
<path d="M63.668 9.00001V15C63.668 20.5696 61.4555 25.911 57.5172 29.8492C53.5789 33.7875 48.2375 36 42.668 36H39.668V39H54.668V60C54.668 61.5913 54.0358 63.1174 52.9106 64.2426C51.7854 65.3679 50.2593 66 48.668 66H24.668C23.0767 66 21.5505 65.3679 20.4253 64.2426C19.3001 63.1174 18.668 61.5913 18.668 60V39H33.668V30C33.668 24.4305 35.8805 19.089 39.8187 15.1508C43.757 11.2125 49.0984 9.00001 54.668 9.00001H63.668ZM17.168 6.00001C20.7679 5.99709 24.3158 6.85916 27.513 8.51363C30.7103 10.1681 33.4632 12.5665 35.54 15.507C32.3701 19.6727 30.6581 24.7654 30.668 30V33H29.168C23.2006 33 17.4776 30.6295 13.2581 26.4099C9.0385 22.1903 6.66797 16.4674 6.66797 10.5V6.00001H17.168Z" fill="white"/>
</svg>
